<?xml version="1.0" standalone="no"?>
<!DOCTYPE svg PUBLIC "-//W3C//DTD SVG 20010904//EN"
 "http://www.w3.org/TR/2001/REC-SVG-20010904/DTD/svg10.dtd">
<svg version="1.0" xmlns="http://www.w3.org/2000/svg"
 width="720.000000pt" height="1280.000000pt" viewBox="0 0 720.000000 1280.000000"
 preserveAspectRatio="xMidYMid meet">

<g transform="translate(0.000000,1280.000000) scale(0.100000,-0.100000)"
fill="#000000" stroke="none">
<path d="M0 6400 l0 -6400 3600 0 3600 0 0 6400 0 6400 -2035 0 c-1337 0
-2035 -4 -2035 -10 0 -6 7 -10 15 -10 8 0 15 -4 15 -10 0 -5 7 -10 15 -10 8 0
15 -5 15 -11 0 -7 10 -9 25 -6 21 3 29 -1 41 -24 12 -23 19 -28 38 -23 13 3
27 1 30 -5 9 -14 36 -14 36 -1 0 6 -7 10 -15 10 -8 0 -23 9 -32 20 -13 14 -20
17 -30 8 -14 -11 -17 0 -5 18 8 13 52 0 52 -15 0 -5 9 -13 20 -16 11 -3 20
-12 20 -19 0 -8 24 -18 60 -26 33 -7 60 -17 60 -21 0 -5 11 -4 24 1 26 10 66
3 66 -12 0 -5 5 -6 11 -2 6 3 24 -10 41 -30 23 -29 37 -36 64 -36 19 0 34 -4
34 -10 0 -5 7 -10 15 -10 15 0 65 -28 75 -42 3 -4 20 -5 38 -3 27 3 32 1 32
-18 1 -19 2 -20 13 -6 12 16 42 15 31 -2 -3 -5 3 -9 14 -9 11 0 28 -11 38 -25
10 -14 23 -25 28 -25 5 0 19 -10 31 -22 13 -13 35 -32 49 -43 14 -11 31 -32
37 -47 6 -16 14 -28 18 -28 4 0 15 -13 24 -30 10 -16 25 -30 33 -30 8 0 14 -4
14 -8 0 -4 15 -24 32 -44 87 -96 149 -183 181 -253 33 -71 42 -88 125 -223 45
-74 82 -138 82 -142 0 -5 6 -15 14 -23 8 -8 26 -30 39 -49 13 -20 34 -48 46
-64 42 -53 91 -138 91 -157 0 -23 19 -60 36 -70 13 -7 17 -46 14 -141 0 -21 3
-43 8 -50 6 -6 12 -27 15 -46 3 -19 15 -75 26 -125 29 -125 40 -177 57 -274 8
-46 22 -107 30 -135 35 -111 79 -237 129 -366 44 -113 95 -265 136 -405 37
-128 61 -459 41 -575 -6 -36 -14 -82 -18 -104 -3 -21 -7 -46 -9 -55 -37 -163
-58 -279 -61 -331 -2 -36 -15 -141 -29 -235 -14 -93 -37 -253 -50 -355 -27
-195 -74 -383 -121 -485 -15 -33 -26 -63 -26 -67 1 -5 -5 -8 -14 -8 -8 0 -20
-13 -25 -29 -6 -16 -17 -32 -25 -35 -8 -3 -14 -16 -14 -30 0 -13 -7 -26 -15
-30 -8 -3 -15 -13 -15 -21 0 -9 -4 -14 -9 -11 -4 3 -13 -6 -19 -19 -7 -14 -18
-25 -27 -25 -8 0 -15 -9 -15 -19 0 -11 -4 -22 -9 -26 -5 -3 -15 -22 -22 -43
-16 -48 -59 -102 -81 -102 -11 0 -18 -8 -18 -20 0 -11 -8 -28 -18 -37 -48 -48
-140 -123 -150 -123 -7 0 -12 -6 -12 -14 0 -8 -9 -18 -20 -21 -11 -4 -18 -11
-15 -16 4 -5 -5 -9 -18 -9 -17 0 -27 -9 -38 -32 -8 -18 -21 -33 -30 -33 -9 0
-38 -24 -65 -52 -26 -29 -54 -53 -61 -53 -8 0 -16 -6 -19 -14 -3 -8 -26 -23
-50 -33 -24 -10 -42 -23 -40 -29 5 -12 -64 -34 -106 -34 -13 0 -29 -5 -36 -12
-17 -17 -49 -20 -55 -4 -4 9 -14 12 -26 9 -12 -3 -21 -1 -21 6 0 6 -7 11 -15
11 -8 0 -15 -4 -15 -10 0 -5 6 -10 13 -10 8 0 14 -12 14 -30 0 -23 -6 -31 -30
-40 -55 -19 -66 -6 -20 22 l28 17 -27 1 c-16 0 -28 5 -28 10 0 6 -6 10 -14 10
-8 0 -13 8 -12 17 2 26 -31 28 -39 2 -4 -12 -10 -17 -14 -12 -3 5 -21 19 -38
32 -27 18 -33 19 -33 7 0 -9 -4 -16 -10 -16 -5 0 -10 7 -10 15 0 18 -12 19
-29 3 -10 -11 -11 -8 -6 14 9 34 -21 42 -49 14 -28 -28 -34 -1 -7 28 12 12 21
27 21 32 0 12 -33 30 -67 37 -26 6 -27 3 -13 -24 8 -13 8 -24 0 -37 -10 -15
-11 -14 -7 5 5 23 -9 33 -40 29 -10 -2 -12 -1 -5 1 22 8 14 32 -9 26 -18 -5
-20 -3 -14 16 6 21 5 22 -16 11 -21 -12 -21 -14 -6 -25 21 -15 22 -49 1 -66
-14 -11 -18 -10 -27 6 -6 11 -13 29 -14 40 -7 42 -10 44 -42 32 -27 -10 -33
-9 -45 8 -10 14 -24 19 -52 17 -31 -2 -42 2 -52 18 -11 17 -10 23 3 36 16 16
20 35 8 33 -5 -1 -16 -1 -25 0 -22 1 -24 21 -2 21 9 0 14 6 11 13 -5 14 -49
10 -59 -7 -6 -8 -8 -8 -8 2 0 6 -6 12 -12 12 -20 1 -66 39 -48 40 11 1 10 4
-4 15 -12 9 -14 15 -7 15 7 0 11 6 8 13 -2 6 -11 11 -21 9 -12 -2 -16 5 -16
32 0 19 5 38 10 41 14 9 2 25 -18 25 -13 0 -17 9 -17 43 0 35 4 42 20 42 12 0
26 11 33 27 9 16 19 25 28 21 20 -7 17 7 -3 23 -16 12 -13 13 26 14 38 0 42 2
31 15 -7 9 -11 17 -9 18 2 1 18 9 34 17 17 8 33 19 38 25 4 6 10 6 15 -2 4 -7
23 -14 41 -15 19 -1 38 -10 45 -20 10 -16 12 -16 32 3 14 13 24 17 29 10 3 -6
15 -11 25 -11 10 0 20 -4 22 -9 2 -5 12 -3 22 5 11 8 14 14 8 14 -7 0 -12 4
-12 9 0 9 60 0 94 -14 16 -7 17 -5 12 16 -3 13 -3 18 0 12 7 -16 34 -17 34 -2
0 6 9 9 20 6 12 -3 23 1 28 10 9 15 43 38 75 49 9 3 17 11 17 16 0 6 7 8 15 5
8 -4 17 -2 20 2 2 5 20 12 39 15 41 8 53 40 31 82 -8 16 -15 34 -15 40 0 6
-26 14 -60 18 -61 7 -90 28 -90 68 0 9 -9 20 -20 23 -11 3 -20 13 -20 21 0 8
-5 14 -11 14 -5 0 -7 5 -3 11 3 6 9 7 13 2 12 -17 63 -45 69 -38 4 4 -7 19
-23 33 -17 15 -36 39 -43 55 -6 15 -17 27 -24 27 -9 0 -9 3 1 9 21 13 -2 63
-26 59 -15 -2 -18 5 -18 42 0 40 -3 45 -24 48 -13 2 -28 -1 -34 -7 -6 -6 -25
-11 -41 -10 -31 0 -30 1 9 15 22 8 67 16 100 18 84 5 279 -19 350 -43 33 -11
61 -16 63 -12 3 10 44 2 52 -10 3 -4 26 -9 50 -10 48 -3 124 -41 172 -86 14
-14 30 -23 35 -20 5 3 27 0 48 -7 38 -13 39 -13 52 11 7 14 13 37 13 51 0 25
-38 92 -52 92 -5 0 -8 10 -8 23 0 13 -9 33 -20 45 -11 12 -20 25 -20 30 0 6
-15 17 -33 25 -18 9 -39 28 -45 43 -9 18 -17 24 -29 20 -9 -4 -23 0 -32 7 -24
20 -74 40 -65 26 3 -6 -5 -3 -20 6 -15 10 -29 16 -31 13 -8 -8 26 -69 35 -63
13 8 18 -59 5 -77 -6 -10 -14 -15 -17 -12 -4 3 -15 0 -26 -7 -17 -11 -25 -9
-52 12 -17 13 -41 33 -53 45 -12 12 -37 29 -55 38 -18 9 -37 27 -43 39 -11 24
-79 60 -116 62 -28 1 -28 0 -5 -23 41 -43 72 -87 72 -104 0 -10 0 -21 1 -25 0
-4 -4 -9 -10 -11 -6 -2 -11 3 -11 11 0 22 -49 52 -63 38 -8 -8 -14 -2 -22 22
-6 20 -17 32 -28 32 -10 0 -25 9 -33 19 -13 18 -14 18 -22 -5 l-9 -23 -14 24
c-7 14 -21 52 -29 85 -15 56 -18 60 -46 61 -16 0 -35 4 -42 8 -7 4 -14 0 -18
-11 -3 -10 -10 -26 -15 -35 -11 -21 -12 -48 -1 -48 17 1 41 28 47 53 7 26 25
38 25 16 0 -8 4 -8 14 0 11 9 15 6 18 -19 6 -39 -3 -47 -19 -18 l-12 23 -1
-27 c0 -19 6 -27 21 -30 18 -3 19 -5 6 -22 -14 -19 -15 -18 -36 3 -17 17 -26
20 -36 11 -10 -8 -7 -16 16 -40 32 -31 37 -50 14 -50 -8 0 -15 7 -15 16 0 11
-6 15 -20 11 -13 -3 -20 0 -20 9 0 8 -7 14 -15 14 -8 0 -15 5 -15 10 0 6 5 10
11 10 8 0 9 4 0 13 -6 8 -8 16 -5 20 12 12 -44 31 -101 34 -43 3 -70 11 -95
28 -26 18 -50 24 -97 26 -50 2 -61 5 -52 15 6 7 8 18 4 25 -4 6 -1 15 6 20 8
5 9 9 3 9 -10 0 -7 20 26 163 7 26 16 47 22 47 6 0 8 7 5 15 -4 10 5 17 30 24
39 11 63 1 63 -25 0 -16 30 -54 43 -54 5 0 6 12 2 28 -13 44 -15 95 -6 106 5
6 12 28 16 49 4 20 10 37 14 37 4 0 7 9 8 20 1 11 8 32 17 47 20 37 51 102 65
136 10 26 10 28 -9 22 -15 -5 -20 -2 -20 13 0 24 -16 38 -53 47 -17 5 -29 16
-33 31 -7 27 -14 30 -33 12 -10 -11 -11 -10 -6 5 5 12 2 17 -10 17 -11 0 -15
-5 -11 -15 6 -18 -1 -19 -43 -4 -17 6 -31 15 -31 21 0 6 -6 8 -14 5 -8 -3 -17
1 -21 10 -4 12 -8 14 -17 5 -19 -19 -58 24 -58 64 0 18 -5 36 -10 39 -6 4 -7
11 -4 17 4 5 2 20 -4 31 -6 12 -13 30 -16 40 -3 10 -10 15 -16 12 -6 -4 -10 8
-10 29 0 19 6 37 13 39 7 3 5 6 -5 6 -14 1 -18 11 -20 44 -3 65 2 112 13 115
5 2 12 21 15 43 4 23 12 39 20 39 24 0 15 25 -18 55 -26 23 -29 30 -17 39 16
13 25 56 11 56 -6 0 -8 9 -5 20 3 11 -4 32 -17 50 -19 26 -19 31 -6 36 21 8
21 24 0 24 -11 0 -15 6 -11 19 3 12 -1 21 -12 24 -12 3 -17 16 -18 47 -1 24
-7 46 -13 50 -7 5 -9 20 -5 44 5 23 3 41 -5 51 -10 12 -9 15 4 15 22 0 20 37
-2 44 -14 5 -17 14 -14 36 2 17 0 30 -6 30 -6 0 -4 12 4 30 9 17 22 30 29 30
7 0 15 6 18 13 3 9 9 9 28 -1 18 -9 32 -10 49 -3 19 7 20 10 7 10 -10 1 -16 5
-12 10 9 16 54 6 70 -15 11 -15 16 -17 26 -6 9 8 10 12 1 12 -7 0 -11 17 -10
46 0 27 -5 49 -12 54 -8 5 -11 19 -8 35 5 24 3 26 -17 21 -14 -4 -28 0 -35 9
-17 21 -7 29 18 16 21 -11 62 -15 62 -6 0 8 -39 45 -48 45 -11 0 -75 60 -65
61 4 1 16 1 26 0 18 -2 24 24 7 34 -6 3 -10 2 -10 -3 0 -5 -11 -7 -25 -4 -26
4 -32 16 -16 27 5 3 12 1 16 -4 3 -6 13 -7 22 -4 14 6 14 8 -3 20 -20 15 -25
44 -9 55 6 5 5 8 -2 8 -7 0 -13 11 -13 25 0 14 -3 25 -7 25 -21 -1 -32 -20
-43 -73 -9 -45 -15 -57 -27 -53 -8 3 -16 6 -18 6 -2 0 -1 8 1 18 3 11 -4 21
-21 29 -20 9 -29 8 -48 -7 -19 -15 -25 -16 -41 -5 -12 9 -16 20 -11 34 3 11 2
29 -4 38 -9 16 -10 16 -11 -4 0 -13 -4 -23 -9 -23 -14 0 -20 37 -8 49 8 8 8
11 -1 11 -6 0 -9 7 -5 16 5 14 2 16 -20 10 -17 -4 -27 -2 -27 4 0 6 -4 8 -10
5 -6 -3 -10 0 -10 8 0 7 15 18 33 24 17 5 22 8 10 6 -17 -2 -23 2 -23 14 -1
17 -1 17 -11 0 -10 -18 -12 -18 -30 -1 -23 21 -38 10 -21 -16 16 -26 15 -31
-3 -24 -8 4 -15 12 -15 19 0 8 -9 10 -25 7 -20 -3 -24 -1 -19 12 4 11 1 16
-10 16 -9 0 -16 5 -16 11 0 7 9 9 24 5 25 -6 45 17 25 29 -5 4 -6 11 -3 17 4
7 -2 8 -17 2 -13 -4 -29 -7 -36 -7 -7 0 -10 -4 -7 -8 2 -4 0 -11 -6 -14 -6 -4
-8 -16 -4 -27 5 -16 2 -19 -13 -16 -10 2 -24 -3 -31 -12 -11 -13 -12 -12 -7 7
3 12 2 24 -3 27 -12 7 -36 -20 -28 -32 7 -12 -23 -38 -52 -45 -16 -4 -25 1
-33 16 -10 17 -13 18 -23 6 -6 -8 -20 -14 -31 -15 -11 -1 -31 -3 -44 -5 -16
-3 -27 2 -35 16 -6 11 -18 25 -26 32 -13 11 -13 15 3 27 16 13 13 14 -30 18
-26 2 -50 1 -53 -2 -3 -4 -20 -7 -37 -8 -23 0 -33 4 -33 15 0 8 -6 13 -12 10
-8 -2 -12 -16 -9 -33 3 -28 3 -29 -17 -11 -11 10 -18 26 -15 36 3 11 0 22 -6
25 -10 6 16 67 32 74 4 2 7 11 7 20 0 20 -36 46 -51 36 -13 -8 -59 4 -59 15 0
4 10 6 23 4 19 -4 22 0 24 31 2 26 -1 36 -12 36 -8 0 -15 5 -15 10 0 16 22 12
35 -7 13 -17 14 -17 33 1 12 10 26 15 31 11 20 -12 32 5 20 27 -9 17 -8 23 6
30 15 9 15 11 -1 23 -16 11 -20 8 -36 -28 -23 -50 -30 -44 -22 16 l7 46 38 -5
c40 -5 55 10 19 19 -11 3 -20 10 -20 17 0 6 3 9 8 6 4 -2 15 2 25 9 18 13 18
14 -1 33 -11 11 -31 22 -44 25 -22 4 -22 5 -3 11 31 11 44 46 27 74 -13 19
-12 22 1 22 20 0 32 -19 29 -42 -2 -10 1 -18 6 -18 17 0 20 60 4 69 -10 5 -13
15 -8 26 6 17 7 17 20 0 8 -11 20 -16 29 -12 23 9 10 36 -20 43 -18 5 -21 9
-12 15 8 4 24 6 36 2 18 -4 23 -1 23 15 0 12 5 24 10 27 18 11 10 36 -22 71
-18 19 -33 40 -33 47 -1 6 -5 20 -9 30 -11 23 1 54 15 40 13 -13 82 24 73 38
-3 6 -11 5 -20 -1 -7 -7 -29 -12 -49 -13 -19 -1 -35 -5 -35 -9 0 -4 -4 -8 -9
-8 -5 0 -1 17 9 37 13 27 15 44 9 61 -5 13 -7 28 -3 33 3 5 -2 9 -10 9 -9 0
-15 -5 -14 -11 2 -6 -3 -14 -9 -16 -9 -3 -13 10 -13 45 0 55 -7 82 -21 82 -5
0 -9 -9 -9 -21 0 -26 -31 -67 -48 -61 -6 2 -12 13 -12 23 0 11 5 17 10 14 9
-5 15 15 11 38 0 4 7 8 16 9 49 4 59 4 76 -4 23 -12 66 0 46 12 -7 5 -13 25
-12 45 0 29 8 44 35 69 29 25 34 35 27 54 -5 12 -13 22 -18 22 -5 0 -12 -10
-14 -22 -3 -13 -3 -4 -1 20 3 39 -9 58 -19 30 -2 -7 -8 -10 -12 -5 -5 4 0 13
10 21 17 12 18 16 5 31 -13 15 -12 19 5 34 16 13 18 21 10 39 -5 12 -18 25
-28 28 -14 4 -16 9 -6 20 9 12 14 11 33 -1 11 -9 21 -26 21 -38 0 -17 6 -22
28 -22 15 -1 27 4 27 12 0 19 34 33 79 33 23 0 41 4 41 8 0 5 11 15 25 22 33
17 33 33 0 18 -14 -6 -25 -15 -25 -20 0 -4 -7 -8 -15 -8 -14 0 -14 3 1 25 16
25 35 34 82 39 15 2 27 9 27 17 1 8 6 13 13 11 7 -1 12 4 12 12 0 16 27 29 41
20 5 -3 9 -12 9 -20 0 -8 5 -14 10 -14 6 0 10 9 10 20 0 11 -7 20 -15 20 -8 0
-15 4 -15 8 0 16 13 21 30 12 27 -14 110 31 110 59 0 6 12 11 26 11 16 0 34
10 46 25 32 41 55 49 85 30 13 -9 28 -13 31 -9 4 4 1 9 -5 11 -20 7 -15 23 7
23 11 0 20 4 20 9 0 6 -522 10 -1395 11 l-1395 0 0 -6400z m2508 6262 c2 -7
-2 -10 -12 -6 -9 3 -16 11 -16 16 0 13 23 5 28 -10z m-198 -76 c0 -3 -4 -8
-10 -11 -5 -3 -10 -1 -10 4 0 6 5 11 10 11 6 0 10 -2 10 -4z m-150 -26 c0 -5
-2 -10 -4 -10 -3 0 -8 5 -11 10 -3 6 -1 10 4 10 6 0 11 -4 11 -10z m115 0 c-3
-5 -10 -10 -16 -10 -5 0 -9 5 -9 10 0 6 7 10 16 10 8 0 12 -4 9 -10z m-34 -25
c5 4 9 1 9 -5 0 -14 -26 -24 -45 -16 -13 5 -14 10 -4 27 10 20 12 21 21 5 5
-9 13 -14 19 -11z m-90 -58 c-6 -8 -8 -22 -5 -32 5 -13 3 -16 -7 -13 -21 7
-22 33 -3 52 19 20 32 13 15 -7z m-181 -187 c0 -5 -4 -10 -10 -10 -5 0 -10 5
-10 10 0 6 5 10 10 10 6 0 10 -4 10 -10z m-30 -105 c0 -9 7 -18 15 -21 17 -7
20 -30 6 -39 -5 -3 -17 9 -25 26 -19 37 -20 49 -6 49 6 0 10 -7 10 -15z m100
-66 c0 -22 -11 -24 -28 -7 -19 19 -14 37 8 31 11 -3 20 -14 20 -24z m3074 -50
c-8 -13 -24 -1 -24 18 0 13 3 13 15 3 8 -7 12 -16 9 -21z m-3164 -111 c0 -4
-13 -8 -30 -8 -16 0 -30 4 -30 9 0 5 14 9 30 9 17 -1 30 -5 30 -10z m42 -22
c3 -15 1 -23 -6 -20 -6 2 -12 15 -12 29 -2 31 12 24 18 -9z m-2 -67 c0 -5 -4
-9 -10 -9 -5 0 -10 7 -10 16 0 8 5 12 10 9 6 -3 10 -10 10 -16z m30 11 c0 -5
-4 -10 -10 -10 -5 0 -10 5 -10 10 0 6 5 10 10 10 6 0 10 -4 10 -10z m3330 -53
c0 -7 9 -23 20 -37 11 -14 19 -40 19 -60 l0 -35 -13 40 c-8 22 -21 57 -30 78
-10 22 -12 36 -7 32 6 -3 11 -12 11 -18z m-3353 -49 c-3 -8 -6 -5 -6 6 -1 11
2 17 5 13 3 -3 4 -12 1 -19z m53 -28 c0 -5 -4 -10 -9 -10 -6 0 -13 5 -16 10
-3 6 1 10 9 10 9 0 16 -4 16 -10z m48 -77 c9 -26 8 -33 -2 -33 -14 0 -28 48
-19 63 6 11 8 9 21 -30z m3322 -94 c0 -11 -4 -17 -10 -14 -5 3 -10 15 -10 26
0 11 5 17 10 14 6 -3 10 -15 10 -26z m-3423 -211 c-3 -8 -6 -5 -6 6 -1 11 2
17 5 13 3 -3 4 -12 1 -19z m-70 -30 c-3 -8 -6 -5 -6 6 -1 11 2 17 5 13 3 -3 4
-12 1 -19z m-57 -188 c0 -5 -5 -10 -11 -10 -5 0 -7 5 -4 10 3 6 8 10 11 10 2
0 4 -4 4 -10z m-15 -81 c-10 -15 -25 -10 -19 6 4 8 10 12 15 9 5 -3 7 -10 4
-15z m94 -15 c7 -6 -2 -12 -32 -19 -23 -6 -27 -4 -27 15 0 19 4 21 27 15 16
-4 30 -9 32 -11z m2956 -4 c3 -5 1 -10 -4 -10 -6 0 -11 5 -11 10 0 6 2 10 4
10 3 0 8 -4 11 -10z m-3075 -53 c0 -2 -10 -12 -21 -23 -22 -19 -22 -19 -10 4
10 18 31 31 31 19z m43 -48 c-7 -24 -63 -28 -63 -4 0 10 7 15 18 13 13 -2 16
3 13 22 -3 24 -3 25 17 7 12 -11 18 -26 15 -38z m-198 -9 c-3 -5 -10 -10 -16
-10 -5 0 -9 5 -9 10 0 6 7 10 16 10 8 0 12 -4 9 -10z m4194 -37 c1 -7 -3 -13
-9 -13 -5 0 -10 15 -9 33 0 27 2 29 9 12 5 -11 9 -26 9 -32z m-4268 10 c-8
-15 -10 -15 -11 -2 0 17 10 32 18 25 2 -3 -1 -13 -7 -23z m296 5 c-3 -8 -6 -5
-6 6 -1 11 2 17 5 13 3 -3 4 -12 1 -19z m-61 -29 c19 -21 19 -22 -4 -15 -15 5
-24 3 -28 -8 -3 -9 -12 -16 -20 -16 -7 0 -18 -8 -23 -17 -6 -10 -11 -13 -11
-7 0 5 7 19 15 30 8 10 15 27 15 37 0 24 33 22 56 -4z m196 -11 c-7 -7 -12 -8
-12 -2 0 14 12 26 19 19 2 -3 -1 -11 -7 -17z m-308 3 c3 -4 -8 -8 -23 -7 -16
1 -27 4 -24 9 6 10 41 9 47 -2z m4156 -71 c17 -91 8 -100 -14 -13 -19 78 -19
83 -8 83 5 0 15 -32 22 -70z m-4240 50 c0 -5 -4 -10 -10 -10 -5 0 -10 5 -10
10 0 6 5 10 10 10 6 0 10 -4 10 -10z m820 -16 c0 -16 -16 -19 -25 -4 -8 13 4
32 16 25 5 -4 9 -13 9 -21z m-47 9 c4 -3 2 -12 -4 -20 -9 -10 -15 -10 -25 -2
-8 6 -11 15 -8 20 6 11 28 12 37 2z m222 -53 c3 -5 -3 -10 -15 -10 -12 0 -18
5 -15 10 3 6 10 10 15 10 5 0 12 -4 15 -10z m-965 -20 c0 -5 -4 -10 -10 -10
-5 0 -10 5 -10 10 0 6 5 10 10 10 6 0 10 -4 10 -10z m4267 -292 c-3 -8 -6 -5
-6 6 -1 11 2 17 5 13 3 -3 4 -12 1 -19z m-20 -10 c-3 -8 -6 -5 -6 6 -1 11 2
17 5 13 3 -3 4 -12 1 -19z m53 -9 c0 -6 -4 -7 -10 -4 -5 3 -10 11 -10 16 0 6
5 7 10 4 6 -3 10 -11 10 -16z m77 -31 c-3 -8 -6 -5 -6 6 -1 11 2 17 5 13 3 -3
4 -12 1 -19z m-100 -50 c-2 -13 -4 -3 -4 22 0 25 2 35 4 23 2 -13 2 -33 0 -45z
m-4247 42 c0 -5 -7 -10 -16 -10 -8 0 -12 5 -9 10 3 6 10 10 16 10 5 0 9 -4 9
-10z m175 -20 c-4 -6 -14 -9 -22 -6 -8 3 -11 1 -8 -4 3 -6 2 -10 -4 -10 -21 0
-20 19 1 34 23 17 46 7 33 -14z m67 20 c6 0 6 -6 -2 -15 -14 -17 -36 -20 -45
-5 -9 15 5 32 22 26 8 -3 19 -6 25 -6z m-186 -15 c6 -14 8 -13 19 2 8 10 17
14 21 10 20 -19 8 -34 -40 -48 l-52 -15 16 33 c17 36 28 41 36 18z m1274 -24
c-1 -20 -50 -51 -50 -31 0 20 24 48 37 43 7 -3 13 -8 13 -12z m-953 -24 c7 3
39 -3 70 -12 47 -14 54 -19 38 -26 -19 -7 -19 -8 3 -8 12 -1 45 -12 74 -26 28
-14 57 -25 62 -25 12 0 66 -83 66 -100 0 -15 -9 -12 -44 15 -18 14 -39 25 -46
25 -7 0 -38 12 -69 27 -69 32 -255 66 -326 58 -124 -14 -143 -14 -149 1 -4 10
2 14 19 14 13 0 27 5 31 11 8 13 -54 2 -73 -13 -7 -5 -17 -7 -23 -3 -15 9 18
34 46 35 11 0 25 5 32 12 20 20 180 35 232 22 25 -6 51 -9 57 -7z m3980 1 c-3
-8 -6 -5 -6 6 -1 11 2 17 5 13 3 -3 4 -12 1 -19z m-3147 2 c0 -5 -5 -10 -11
-10 -5 0 -7 5 -4 10 3 6 8 10 11 10 2 0 4 -4 4 -10z m-1195 -103 c-20 -11 -29
-3 -21 19 5 13 9 14 22 3 14 -11 14 -13 -1 -22z m1125 18 c0 -8 -4 -15 -10
-15 -5 0 -10 7 -10 15 0 8 5 15 10 15 6 0 10 -7 10 -15z m3157 -17 c-3 -7 -5
-2 -5 12 0 14 2 19 5 13 2 -7 2 -19 0 -25z m-4009 -20 c12 1 22 -2 22 -7 0
-14 60 -19 89 -8 21 8 43 3 116 -27 85 -35 170 -84 161 -93 -2 -2 -27 10 -55
27 -29 16 -55 30 -60 30 -4 0 -21 6 -37 14 -43 22 -89 31 -80 17 4 -6 2 -11
-3 -11 -6 0 -11 6 -11 14 0 8 -5 18 -11 22 -8 4 -9 0 -4 -15 8 -26 -7 -27 -60
-5 -45 18 -208 22 -270 6 -66 -17 -105 -22 -105 -14 0 14 63 42 98 43 20 1 48
5 62 9 14 5 48 6 75 3 28 -4 60 -6 73 -5z m3995 -48 c-8 -9 -21 24 -15 39 5
12 8 10 12 -9 4 -14 5 -27 3 -30z m133 -115 c-2 -5 -7 8 -11 30 -4 22 -11 45
-16 51 -4 5 -5 21 -2 34 5 19 9 10 20 -40 7 -36 11 -69 9 -75z m-117 58 c1 -7
-3 -13 -9 -13 -5 0 -10 15 -9 33 0 27 2 29 9 12 5 -11 9 -26 9 -32z m-4095 28
c10 -16 -37 -20 -63 -6 -26 14 -26 14 16 15 23 0 44 -4 47 -9z m304 -28 c11
-16 13 -16 25 1 10 14 17 15 41 6 16 -6 26 -13 23 -16 -3 -3 -15 0 -27 6 -12
6 -25 9 -28 5 -8 -8 27 -35 45 -35 15 0 17 -16 4 -25 -6 -3 -14 2 -19 11 -7
13 -22 17 -56 16 -29 -2 -45 2 -44 9 2 6 -19 18 -46 26 -32 9 -45 17 -37 22
19 12 104 -7 119 -26z m3953 -138 c5 -87 6 -161 3 -166 -3 -5 -1 -24 4 -43 5
-18 6 -39 2 -46 -12 -19 -31 47 -21 73 11 29 2 129 -12 120 -6 -4 -7 4 -2 23
11 40 12 131 2 179 -7 31 -6 37 3 28 8 -7 16 -71 21 -168z m-4331 145 c0 -5
-2 -10 -4 -10 -3 0 -8 5 -11 10 -3 6 -1 10 4 10 6 0 11 -4 11 -10z m207 -26
c-3 -3 -12 -4 -19 -1 -8 3 -5 6 6 6 11 1 17 -2 13 -5z m-274 -19 c-3 -9 -8
-14 -10 -11 -3 3 -2 9 2 15 9 16 15 13 8 -4z m87 -6 c0 -5 -6 -9 -12 -9 -7 0
-24 -3 -38 -7 -24 -6 -25 -6 -7 14 18 20 57 21 57 2z m275 1 c17 -11 40 -20
53 -20 12 0 22 -4 22 -9 0 -5 13 -12 30 -16 16 -4 33 -11 36 -17 8 -13 -11 -9
-121 23 -96 28 -90 24 -74 43 18 20 18 20 54 -4z m32 14 c-3 -3 -12 -4 -19 -1
-8 3 -5 6 6 6 11 1 17 -2 13 -5z m-172 -14 c4 -6 -5 -10 -20 -10 -15 0 -24 4
-20 10 3 6 12 10 20 10 8 0 17 -4 20 -10z m45 0 c0 -5 -7 -10 -15 -10 -8 0
-15 5 -15 10 0 6 7 10 15 10 8 0 15 -4 15 -10z m3997 -52 c-3 -7 -5 -2 -5 12
0 14 2 19 5 13 2 -7 2 -19 0 -25z m-3572 -38 c3 -5 -1 -10 -9 -10 -9 0 -16 5
-16 10 0 6 4 10 9 10 6 0 13 -4 16 -10z m3552 -22 c-3 -7 -5 -2 -5 12 0 14 2
19 5 13 2 -7 2 -19 0 -25z m-3826 -38 c5 0 9 -6 9 -13 0 -7 14 -18 30 -24 31
-12 42 -43 14 -43 -9 0 -14 -6 -11 -12 2 -7 10 -12 16 -10 6 1 11 -6 11 -15 1
-17 1 -17 14 -1 10 13 15 15 25 5 9 -9 13 -7 18 11 5 19 11 23 42 20 33 -3 44
-23 13 -23 -7 0 -16 -6 -21 -13 -4 -7 -21 -14 -39 -16 -17 -3 -44 -14 -59 -26
-16 -11 -40 -22 -54 -24 -24 -3 -31 -6 -98 -33 -42 -16 -51 -10 -18 12 40 26
75 88 83 145 5 39 3 55 -7 62 -11 8 -10 9 4 4 10 -3 23 -6 28 -6z m3946 -117
c-3 -10 -5 -2 -5 17 0 19 2 27 5 18 2 -10 2 -26 0 -35z m-3767 -95 c0 -4 -9
-8 -20 -8 -21 0 -24 8 -13 36 6 16 7 16 20 -2 7 -10 13 -21 13 -26z m50 33 c0
-13 -26 -32 -33 -24 -8 7 11 33 24 33 5 0 9 -4 9 -9z m-168 -46 c5 -6 12 -5
20 3 16 16 38 15 38 -2 0 -15 -30 -28 -73 -30 -19 -1 -26 3 -22 12 3 8 5 18 5
23 0 11 23 7 32 -6z m3936 -26 c2 -14 -2 -36 -7 -49 -9 -23 -10 -23 -10 12 -1
20 -4 44 -8 54 -4 12 -2 15 8 12 8 -2 15 -16 17 -29z m-4225 -6 c-7 -2 -19 -2
-25 0 -7 3 -2 5 12 5 14 0 19 -2 13 -5z m4132 -63 c3 -5 1 -10 -4 -10 -6 0
-11 5 -11 10 0 6 2 10 4 10 3 0 8 -4 11 -10z m110 -16 c-6 -2 -9 -20 -7 -39 2
-20 0 -35 -6 -35 -6 0 -8 -9 -5 -20 3 -11 1 -20 -5 -20 -15 0 -22 28 -13 53 4
12 7 32 6 45 -1 16 3 22 19 21 12 0 16 -3 11 -5z m14 -182 c-1 -42 -2 -44 -9
-17 -11 45 -11 77 0 70 6 -3 9 -27 9 -53z m-4059 -11 c0 -6 -4 -13 -10 -16 -5
-3 -10 1 -10 9 0 9 5 16 10 16 6 0 10 -4 10 -9z m120 -6 c10 -13 9 -15 -9 -15
-12 0 -21 6 -21 15 0 8 4 15 9 15 5 0 14 -7 21 -15z m-55 -5 c3 -5 -3 -10 -14
-10 -12 0 -21 5 -21 10 0 6 6 10 14 10 8 0 18 -4 21 -10z m-155 -9 c0 -10 -30
-24 -37 -17 -3 3 -2 9 2 15 8 13 35 15 35 2z m265 -58 l-7 -46 26 16 c27 18
41 11 25 -13 -13 -21 -11 -30 6 -30 8 0 15 9 15 19 0 11 3 27 6 36 5 13 9 11
20 -11 8 -14 14 -35 14 -45 0 -10 5 -21 11 -25 6 -3 9 -17 6 -30 -2 -13 -1
-24 3 -24 26 0 5 -154 -23 -172 -7 -4 -7 -11 1 -21 10 -11 9 -22 -3 -51 -8
-20 -19 -36 -23 -36 -4 0 -8 -8 -9 -17 0 -10 -4 -33 -8 -50 -5 -22 -4 -33 4
-33 21 0 11 -19 -11 -22 -18 -2 -23 -10 -24 -37 -1 -19 -9 -40 -18 -46 -20
-15 -21 -26 -2 -19 10 4 13 -3 11 -28 -2 -18 -3 -43 -4 -55 -1 -13 -7 -23 -16
-23 -11 0 -14 -7 -10 -27 3 -16 2 -22 -1 -15 -3 6 -12 12 -19 12 -7 0 -15 9
-18 21 -3 12 -10 18 -17 14 -6 -4 -9 -13 -6 -21 3 -7 1 -16 -5 -19 -15 -10 1
-27 18 -20 29 10 53 -5 53 -33 -1 -23 -2 -25 -11 -9 -17 30 -27 10 -18 -35 15
-67 21 -77 29 -48 8 23 8 23 9 -7 1 -21 -3 -32 -11 -30 -6 1 -14 -6 -16 -16
-2 -11 2 -17 10 -16 7 1 24 -2 38 -8 24 -10 24 -10 -9 -15 -22 -3 -35 0 -38 9
-6 16 -43 18 -43 1 0 -6 -3 -8 -6 -5 -8 7 -44 -36 -44 -52 0 -14 -41 -35 -49
-25 -13 18 -50 34 -56 24 -3 -6 2 -10 12 -10 15 0 14 -3 -7 -19 -28 -22 -40
-19 -40 10 0 27 -17 24 -37 -8 -23 -36 -43 -57 -43 -45 0 5 9 19 20 32 16 18
17 26 8 37 -8 10 -13 11 -18 2 -5 -8 -10 -8 -14 -1 -4 6 -13 9 -21 5 -11 -4
-15 2 -15 20 0 16 -7 26 -20 30 -15 4 -20 0 -20 -15 0 -13 -6 -18 -17 -16 -13
2 -17 11 -15 31 3 22 -1 30 -17 34 -12 3 -21 9 -21 14 0 5 -6 9 -13 9 -16 0
-43 31 -52 59 -4 15 -15 21 -36 21 -18 0 -28 4 -24 10 3 6 15 10 26 10 10 0
19 6 19 14 0 8 8 17 18 21 16 6 16 7 0 16 -24 13 -23 23 7 55 27 29 33 46 12
39 -6 -3 -17 4 -22 16 -11 24 -46 45 -89 54 -24 5 -27 9 -21 28 4 12 7 33 7
47 0 14 4 30 9 36 6 8 5 14 -5 17 -8 3 -20 -1 -26 -9 -16 -18 -30 -18 -30 1 0
29 -19 15 -22 -17 l-4 -33 -8 30 c-4 17 -11 38 -17 48 -7 14 -5 17 11 17 25 0
27 20 3 20 -16 1 -16 3 2 18 15 12 19 24 15 42 -4 14 -3 36 2 49 5 13 6 26 3
29 -3 3 -5 -1 -5 -8 0 -9 -6 -8 -20 5 -24 22 -26 8 -4 -23 14 -20 14 -22 -1
-22 -9 0 -26 10 -39 23 -13 13 -28 21 -34 19 -7 -2 -12 1 -12 7 0 6 14 11 30
11 25 0 30 4 30 24 0 14 -5 28 -10 31 -6 4 -8 15 -5 26 4 11 2 19 -4 19 -14 0
-14 37 -1 45 6 4 8 11 5 16 -4 5 1 12 9 15 9 3 16 12 16 19 0 7 8 23 19 36 10
13 21 33 24 44 3 11 5 3 6 -20 l2 -40 18 23 c23 26 28 27 47 7 20 -19 48 -20
41 -1 -3 8 3 22 14 32 17 16 22 16 30 4 9 -12 10 -11 6 6 -4 18 2 23 45 33 64
14 71 14 64 -4 -4 -11 2 -15 25 -15 18 0 28 -4 24 -10 -11 -18 4 -10 30 16 14
14 23 30 20 35 -10 15 12 10 29 -6 12 -12 20 -13 35 -5 29 15 58 12 65 -6 4
-11 -1 -18 -14 -21 -16 -4 -18 -8 -9 -19 7 -9 20 -12 31 -8 14 4 21 0 25 -15
6 -25 23 -18 23 10 0 10 -6 19 -14 19 -21 0 -30 20 -16 33 9 9 15 7 26 -8 15
-19 15 -19 9 8 -6 23 -4 27 14 27 15 0 21 -6 21 -21 0 -16 5 -20 20 -16 15 4
20 0 20 -16 1 -20 1 -21 11 -4 7 12 17 16 30 12 13 -5 19 -2 19 10 0 18 18 55
26 55 4 0 3 -21 -1 -47z m-375 22 c0 -10 -10 -15 -30 -15 -36 0 -38 7 -7 20
32 13 37 12 37 -5z m-540 -125 c0 -5 -4 -10 -10 -10 -5 0 -10 5 -10 10 0 6 5
10 10 10 6 0 10 -4 10 -10z m37 -192 c-3 -8 -6 -5 -6 6 -1 11 2 17 5 13 3 -3
4 -12 1 -19z m103 -94 c0 -2 -9 -4 -20 -4 -11 0 -20 4 -20 9 0 5 9 7 20 4 11
-3 20 -7 20 -9z m7 -41 c4 -12 -25 -26 -38 -17 -5 3 -9 11 -9 18 0 15 42 14
47 -1z m103 -157 c0 -2 -7 -9 -15 -16 -12 -10 -15 -10 -15 4 0 9 7 16 15 16 8
0 15 -2 15 -4z m35 -136 c3 -5 1 -10 -4 -10 -6 0 -11 5 -11 10 0 6 2 10 4 10
3 0 8 -4 11 -10z m39 -55 c15 -12 17 -18 8 -27 -9 -9 -16 -7 -32 7 -32 29 -11
47 24 20z m4599 -30 c-3 -9 -8 -14 -10 -11 -3 3 -2 9 2 15 9 16 15 13 8 -4z
m-4583 -35 c0 -15 -7 -20 -27 -20 -25 0 -26 0 -8 20 10 11 22 20 27 20 4 0 8
-9 8 -20z m-30 -80 c0 -5 -4 -10 -10 -10 -5 0 -10 5 -10 10 0 6 5 10 10 10 6
0 10 -4 10 -10z m5020 1 c0 -6 -4 -13 -10 -16 -5 -3 -10 1 -10 9 0 9 5 16 10
16 6 0 10 -4 10 -9z m-186 -51 c-10 -16 -20 -28 -22 -26 -4 5 28 56 35 56 2 0
-4 -13 -13 -30z m162 -38 c-10 -11 -16 -12 -16 -4 0 7 5 12 10 12 6 0 10 8 11
18 0 11 2 13 6 4 3 -8 -2 -21 -11 -30z m-196 -12 c0 -5 -2 -10 -4 -10 -3 0 -8
5 -11 10 -3 6 -1 10 4 10 6 0 11 -4 11 -10z m-3980 -10 c0 -5 -4 -10 -10 -10
-5 0 -10 5 -10 10 0 6 5 10 10 10 6 0 10 -4 10 -10z m-80 -24 c0 -8 6 -17 13
-19 6 -3 2 -6 -11 -6 -13 -1 -32 8 -44 19 l-22 20 32 0 c21 0 32 -5 32 -14z
m-184 -25 c-4 -6 -13 -11 -21 -11 -8 0 -11 -7 -8 -20 4 -16 0 -20 -21 -20 -16
0 -26 5 -26 15 0 18 12 19 29 3 10 -11 11 -8 6 14 -5 19 -2 29 12 36 20 12 39
0 29 -17z m123 -8 c0 -25 -1 -26 -9 -8 -12 27 -12 35 0 35 6 0 10 -12 9 -27z
m-70 -9 c3 -16 1 -17 -13 -5 -19 16 -21 34 -3 29 6 -3 14 -13 16 -24z m-400
-21 c0 -11 -3 -13 -6 -5 -2 6 -9 10 -14 6 -5 -3 -9 0 -9 5 0 6 7 11 15 11 8 0
15 -8 14 -17z m611 -7 c0 -11 -19 -15 -25 -6 -3 5 1 10 9 10 9 0 16 -2 16 -4z
m3970 -62 c-18 -21 -24 -10 -9 18 8 14 14 18 17 10 2 -7 -2 -19 -8 -28z
m-3980 -5 c0 -24 -16 -25 -29 -1 -8 14 -6 18 10 19 13 1 19 -5 19 -18z m979
-86 c0 -25 -1 -25 -8 -8 -5 11 -7 23 -4 28 8 14 13 7 12 -20z m-47 -23 c11 0
10 -37 -1 -45 -6 -3 -15 11 -20 32 -14 48 -13 65 1 36 6 -13 15 -23 20 -23z
m2549 -27 c-8 -15 -10 -15 -11 -2 0 17 10 32 18 25 2 -3 -1 -13 -7 -23z m956
-70 c-3 -10 -5 -2 -5 17 0 19 2 27 5 18 2 -10 2 -26 0 -35z m40 10 c-3 -10 -5
-4 -5 12 0 17 2 24 5 18 2 -7 2 -21 0 -30z m-1000 -115 c-3 -8 -6 -5 -6 6 -1
11 2 17 5 13 3 -3 4 -12 1 -19z m-2649 -83 c0 -12 -5 -6 -12 15 -8 19 -11 39
-8 45 7 11 20 -29 20 -60z m102 40 c0 -8 -4 -15 -10 -15 -5 0 -10 7 -10 15 0
8 5 15 10 15 6 0 10 -7 10 -15z m3547 -17 c-3 -7 -5 -2 -5 12 0 14 2 19 5 13
2 -7 2 -19 0 -25z m-3767 12 c0 -5 -2 -10 -4 -10 -3 0 -8 5 -11 10 -3 6 -1 10
4 10 6 0 11 -4 11 -10z m320 -40 c0 -5 -2 -10 -4 -10 -3 0 -8 5 -11 10 -3 6
-1 10 4 10 6 0 11 -4 11 -10z m3375 -40 c3 -5 1 -10 -4 -10 -6 0 -11 5 -11 10
0 6 2 10 4 10 3 0 8 -4 11 -10z m-3372 -40 c-3 -11 -14 -20 -25 -20 -13 0 -17
4 -12 13 24 38 46 43 37 7z m3197 -61 c0 -6 -4 -7 -10 -4 -5 3 -10 11 -10 16
0 6 5 7 10 4 6 -3 10 -11 10 -16z m-3155 -29 c3 -11 3 -25 0 -31 -8 -12 -28
13 -40 49 -6 21 -5 23 13 13 12 -6 23 -20 27 -31z m1705 -45 c-7 -8 -17 -15
-23 -15 -6 0 -2 7 9 15 25 19 30 19 14 0z m557 -47 c-3 -7 -5 -2 -5 12 0 14 2
19 5 13 2 -7 2 -19 0 -25z m974 -219 c-12 -12 -25 -18 -29 -14 -4 4 2 13 12
21 30 22 43 17 17 -7z m11 -41 c-7 -7 -12 -23 -13 -37 l0 -26 -10 25 c-8 19
-6 27 7 37 22 16 32 17 16 1z m105 -310 c-3 -8 -6 -5 -6 6 -1 11 2 17 5 13 3
-3 4 -12 1 -19z m-3939 -32 c-2 -19 -5 -22 -15 -14 -18 14 -16 38 2 38 10 0
14 -9 13 -24z m3829 -38 c-3 -7 -5 -2 -5 12 0 14 2 19 5 13 2 -7 2 -19 0 -25z
m80 -125 c-2 -32 -3 -8 -3 52 0 61 1 87 3 58 2 -29 2 -78 0 -110z m-3677 -53
c0 -5 -4 -10 -10 -10 -5 0 -10 5 -10 10 0 6 5 10 10 10 6 0 10 -4 10 -10z
m310 -20 c0 -5 -4 -10 -10 -10 -5 0 -10 5 -10 10 0 6 5 10 10 10 6 0 10 -4 10
-10z m3367 -412 c-2 -18 -4 -6 -4 27 0 33 2 48 4 33 2 -15 2 -42 0 -60z m-42
12 c3 -5 1 -10 -4 -10 -6 0 -11 5 -11 10 0 6 2 10 4 10 3 0 8 -4 11 -10z
m-238 -77 c-3 -10 -5 -4 -5 12 0 17 2 24 5 18 2 -7 2 -21 0 -30z m296 -46 c3
-26 1 -49 -2 -52 -4 -2 -8 15 -10 37 -1 23 -2 44 -3 47 -1 13 2 24 7 20 2 -3
6 -26 8 -52z m-461 -59 c-7 -7 -12 -8 -12 -2 0 14 12 26 19 19 2 -3 -1 -11 -7
-17z m455 -70 c-3 -8 -6 -5 -6 6 -1 11 2 17 5 13 3 -3 4 -12 1 -19z m-100 -20
c-3 -8 -6 -5 -6 6 -1 11 2 17 5 13 3 -3 4 -12 1 -19z m-360 -80 c-3 -8 -6 -5
-6 6 -1 11 2 17 5 13 3 -3 4 -12 1 -19z m180 -20 c-3 -8 -6 -5 -6 6 -1 11 2
17 5 13 3 -3 4 -12 1 -19z m-540 -130 c-3 -8 -6 -5 -6 6 -1 11 2 17 5 13 3 -3
4 -12 1 -19z m-2847 -332 c0 -3 -4 -8 -10 -11 -5 -3 -10 -1 -10 4 0 6 5 11 10
11 6 0 10 -2 10 -4z m3207 -88 c-3 -8 -6 -5 -6 6 -1 11 2 17 5 13 3 -3 4 -12
1 -19z m-653 -314 c3 -8 2 -12 -4 -9 -6 3 -10 10 -10 16 0 14 7 11 14 -7z
m-2621 -112 c3 7 6 -6 6 -29 1 -34 5 -43 19 -43 20 -1 63 -30 43 -30 -7 0 -27
-10 -44 -22 -30 -21 -30 -21 -25 -1 3 12 1 20 -6 19 -6 0 -11 4 -11 9 0 6 3 9
8 8 4 -2 7 6 7 18 0 11 -4 17 -10 14 -5 -3 -10 0 -10 7 0 7 -3 24 -7 38 -6 22
-4 23 9 12 13 -10 17 -10 21 0z m127 -2 c12 -8 11 -10 -7 -10 -13 0 -23 5 -23
10 0 13 11 13 30 0z m-70 -30 c0 -11 -4 -20 -10 -20 -5 0 -10 9 -10 20 0 11 5
20 10 20 6 0 10 -9 10 -20z m-109 -7 c7 -38 6 -101 -1 -113 -8 -13 -9 -13 -10
0 -1 8 -3 39 -6 68 -4 34 -2 52 5 52 6 0 12 -3 12 -7z m-71 -17 c0 -7 3 -35 6
-62 5 -33 3 -46 -4 -39 -12 13 -22 115 -11 115 5 0 9 -6 9 -14z m-53 -18 c-3
-8 -6 -5 -6 6 -1 11 2 17 5 13 3 -3 4 -12 1 -19z m283 -2 c5 -13 14 -27 19
-31 6 -3 11 -15 11 -25 0 -10 9 -35 21 -55 17 -28 19 -38 9 -50 -10 -12 -9
-20 4 -40 9 -14 15 -33 14 -42 -5 -26 18 -25 30 2 7 16 17 23 27 19 18 -7 19
-27 3 -54 -16 -25 -2 -38 19 -17 21 20 24 54 6 61 -20 8 -16 26 6 26 14 0 20
-10 25 -42 3 -24 9 -53 12 -65 5 -17 2 -23 -10 -23 -10 0 -14 -4 -11 -10 3 -5
0 -10 -8 -10 -8 0 -20 -6 -26 -14 -7 -8 -32 -16 -56 -18 -34 -2 -41 0 -33 10
6 7 8 15 5 19 -7 6 -46 -36 -47 -51 0 -14 -30 15 -30 29 0 12 -22 41 -87 113
-13 14 -23 29 -23 34 0 5 -16 23 -35 40 -28 24 -33 33 -24 44 6 8 8 14 5 14
-4 0 -4 5 -1 10 4 6 18 0 37 -15 16 -14 38 -25 48 -25 10 0 22 -9 25 -20 7
-21 45 -28 41 -7 -1 6 -12 28 -24 47 -25 39 -19 56 8 23 14 -18 19 -20 24 -8
3 10 -7 20 -29 31 -35 16 -49 32 -20 20 10 -4 19 2 24 16 7 18 9 19 14 5 8
-20 37 -23 37 -3 0 7 -6 19 -14 26 -8 6 -12 18 -9 26 3 8 0 14 -6 14 -6 0 -11
5 -11 10 0 19 21 10 30 -14z m59 2 c12 -33 1 -45 -15 -17 -16 29 -17 39 -4 39
6 0 14 -10 19 -22z m-1972 -40 c-3 -8 -6 -5 -6 6 -1 11 2 17 5 13 3 -3 4 -12
1 -19z m2007 -52 c-3 -9 -13 -16 -22 -16 -13 0 -12 3 3 20 20 23 29 21 19 -4z
m-1740 -85 c-4 -17 -9 -30 -11 -27 -3 2 -2 19 2 36 9 41 17 33 9 -9z m1754 14
c-3 -14 -1 -25 4 -25 5 0 6 -5 2 -11 -4 -7 -11 -6 -21 4 -12 12 -13 19 -4 36
16 28 24 27 19 -4z m82 15 c13 -8 13 -10 -2 -10 -9 0 -20 5 -23 10 -8 13 5 13
25 0z m64 -127 c9 -24 -9 -39 -29 -23 -8 7 -15 19 -15 26 0 20 37 17 44 -3z
m-2147 -25 c-3 -7 -5 -2 -5 12 0 14 2 19 5 13 2 -7 2 -19 0 -25z m2123 -118
c0 -16 -42 -23 -51 -9 -7 12 -9 11 -10 -1 -1 -8 -1 -20 0 -26 1 -6 -13 -14
-30 -18 -36 -7 -29 -27 9 -24 15 1 44 1 65 0 l37 -2 -21 -21 c-15 -15 -27 -19
-51 -14 -28 7 -29 6 -19 -14 7 -11 15 -20 19 -18 4 1 14 -4 22 -11 8 -7 23
-18 34 -26 17 -12 17 -13 1 -30 -17 -17 -20 -16 -52 19 -18 20 -33 39 -33 43
0 4 -16 25 -35 47 -38 44 -41 51 -22 58 6 3 -1 3 -18 1 -23 -4 -33 0 -42 15
-10 15 -9 22 2 31 8 7 15 8 15 3 0 -15 101 3 118 21 13 13 18 13 38 -1 13 -8
24 -19 24 -23z m105 0 c-11 -5 -27 -9 -35 -9 -9 0 -8 4 5 9 11 5 27 9 35 9 9
0 8 -4 -5 -9z m-56 -46 c-16 -19 -29 -17 -29 4 0 26 11 34 27 21 10 -9 10 -15
2 -25z m18 -121 c-4 -3 -3 -11 3 -17 5 -7 5 -17 0 -26 -8 -12 -10 -10 -10 8 0
14 -6 22 -17 22 -15 0 -16 2 -3 10 17 11 37 13 27 3z m48 -9 c-9 -9 -19 -13
-23 -10 -3 4 0 11 8 16 24 15 33 11 15 -6z m22 -26 c-3 -8 -6 -5 -6 6 -1 11 2
17 5 13 3 -3 4 -12 1 -19z m30 -40 c-3 -8 -6 -5 -6 6 -1 11 2 17 5 13 3 -3 4
-12 1 -19z m-139 -29 c-19 -12 -25 -11 -32 7 -4 11 -2 15 8 11 8 -3 18 2 22
11 6 15 8 15 12 -2 2 -10 -2 -22 -10 -27z m87 -3 c18 -13 18 -14 -8 -9 -15 3
-27 9 -27 14 0 13 13 11 35 -5z m55 4 c0 -5 -7 -10 -16 -10 -8 0 -12 5 -9 10
3 6 10 10 16 10 5 0 9 -4 9 -10z m-108 -60 c6 0 17 -8 24 -17 9 -12 13 -14 14
-5 0 7 5 10 11 6 8 -5 8 -9 -1 -14 -9 -6 -7 -13 9 -29 11 -11 21 -29 21 -38 0
-13 -5 -11 -18 10 -9 15 -22 27 -29 27 -7 0 -15 11 -19 24 -3 14 -12 27 -20
30 -8 3 -13 13 -13 23 1 17 2 17 6 1 2 -10 9 -18 15 -18z m1598 -2309 c0 -6
-4 -13 -10 -16 -5 -3 -10 1 -10 9 0 9 5 16 10 16 6 0 10 -4 10 -9z"/>
<path d="M1805 9310 c-3 -5 -2 -10 4 -10 5 0 13 5 16 10 3 6 2 10 -4 10 -5 0
-13 -4 -16 -10z"/>
<path d="M2008 9303 c7 -3 16 -2 19 1 4 3 -2 6 -13 5 -11 0 -14 -3 -6 -6z"/>
<path d="M2080 9260 c0 -5 5 -10 11 -10 5 0 7 5 4 10 -3 6 -8 10 -11 10 -2 0
-4 -4 -4 -10z"/>
<path d="M2385 9240 c-3 -5 -1 -10 4 -10 8 0 7 -7 -1 -20 -15 -24 -9 -31 20
-23 13 3 22 13 22 24 0 21 -35 44 -45 29z"/>
<path d="M1560 9080 c0 -5 5 -10 10 -10 6 0 10 5 10 10 0 6 -4 10 -10 10 -5 0
-10 -4 -10 -10z"/>
<path d="M1600 9060 c0 -5 5 -10 10 -10 6 0 10 5 10 10 0 6 -4 10 -10 10 -5 0
-10 -4 -10 -10z"/>
<path d="M1707 8753 c-11 -10 -8 -43 4 -43 5 0 7 5 3 12 -4 6 1 17 11 25 15
10 16 13 4 13 -9 0 -19 -3 -22 -7z"/>
<path d="M1790 8710 c0 -5 5 -10 10 -10 6 0 10 5 10 10 0 6 -4 10 -10 10 -5 0
-10 -4 -10 -10z"/>
<path d="M1885 8560 c-3 -5 -1 -10 4 -10 6 0 11 5 11 10 0 6 -2 10 -4 10 -3 0
-8 -4 -11 -10z"/>
<path d="M2255 8500 c3 -5 8 -10 11 -10 2 0 4 5 4 10 0 6 -5 10 -11 10 -5 0
-7 -4 -4 -10z"/>
<path d="M2250 8424 c0 -8 5 -12 10 -9 6 3 10 10 10 16 0 5 -4 9 -10 9 -5 0
-10 -7 -10 -16z"/>
<path d="M1805 8419 c-9 -13 -5 -16 22 -21 12 -1 22 2 23 7 0 6 -3 10 -7 10
-5 0 -13 4 -20 8 -6 4 -15 2 -18 -4z"/>
<path d="M1990 8370 c-8 -5 -10 -10 -5 -10 6 0 17 5 25 10 8 5 11 10 5 10 -5
0 -17 -5 -25 -10z"/>
<path d="M2210 8350 c0 -5 5 -10 10 -10 6 0 10 5 10 10 0 6 -4 10 -10 10 -5 0
-10 -4 -10 -10z"/>
<path d="M1920 8340 c0 -5 7 -10 15 -10 8 0 15 5 15 10 0 6 -7 10 -15 10 -8 0
-15 -4 -15 -10z"/>
<path d="M1966 8314 c-13 -35 17 -46 35 -13 8 15 8 19 0 15 -6 -4 -11 -2 -11
3 0 17 -17 13 -24 -5z"/>
<path d="M2030 8290 c0 -5 7 -10 16 -10 8 0 12 5 9 10 -3 6 -10 10 -16 10 -5
0 -9 -4 -9 -10z"/>
<path d="M2145 8290 c3 -5 8 -10 11 -10 2 0 4 5 4 10 0 6 -5 10 -11 10 -5 0
-7 -4 -4 -10z"/>
<path d="M3150 4664 c0 -8 5 -12 10 -9 6 4 8 11 5 16 -9 14 -15 11 -15 -7z"/>
<path d="M3317 4673 c-12 -11 -7 -33 7 -33 7 0 19 6 25 14 9 11 8 15 -5 20
-19 7 -19 7 -27 -1z"/>
<path d="M3347 4604 c-13 -13 -7 -24 14 -24 11 0 19 5 17 12 -5 14 -22 21 -31
12z"/>
<path d="M3407 4534 c-4 -4 -7 -16 -7 -26 0 -20 25 -25 36 -7 8 13 -19 43 -29
33z"/>
<path d="M3316 4502 c-17 -20 -17 -22 -2 -38 22 -21 34 -7 27 30 l-6 28 -19
-20z"/>
<path d="M3437 4393 c-4 -3 -7 -11 -7 -17 0 -6 5 -5 12 2 6 6 9 14 7 17 -3 3
-9 2 -12 -2z"/>
<path d="M2843 12786 c2 -6 20 -10 39 -9 22 2 41 -3 48 -12 18 -22 30 -18 30
10 0 23 -3 25 -60 24 -41 -1 -60 -5 -57 -13z"/>
<path d="M3015 12789 c-11 -17 1 -21 15 -4 8 9 8 15 2 15 -6 0 -14 -5 -17 -11z"/>
<path d="M3350 12662 c0 -5 7 -9 15 -9 8 0 15 4 15 9 0 4 -7 8 -15 8 -8 0 -15
-4 -15 -8z"/>
<path d="M2580 12637 c0 -7 9 -18 20 -25 17 -10 21 -10 27 4 6 16 -11 34 -34
34 -7 0 -13 -6 -13 -13z"/>
<path d="M2569 12544 c-12 -14 -11 -16 5 -13 11 2 21 10 24 17 5 17 -13 15
-29 -4z"/>
<path d="M2630 12535 c7 -9 15 -13 17 -11 7 7 -7 26 -19 26 -6 0 -6 -6 2 -15z"/>
<path d="M2370 12460 c6 -11 15 -18 21 -14 6 4 6 11 -2 20 -17 21 -31 17 -19
-6z"/>
<path d="M2340 12430 c0 -5 4 -10 9 -10 6 0 13 5 16 10 3 6 -1 10 -9 10 -9 0
-16 -4 -16 -10z"/>
<path d="M2775 12430 c-3 -5 1 -10 10 -10 9 0 13 5 10 10 -3 6 -8 10 -10 10
-2 0 -7 -4 -10 -10z"/>
<path d="M2140 12390 c0 -6 -10 -10 -22 -8 -32 4 -30 -24 1 -32 13 -3 28 -14
32 -25 8 -21 10 -16 13 39 0 16 -5 31 -11 33 -7 3 -13 0 -13 -7z"/>
<path d="M2260 12380 c0 -5 5 -10 11 -10 5 0 7 5 4 10 -3 6 -8 10 -11 10 -2 0
-4 -4 -4 -10z"/>
<path d="M2196 12361 c-4 -7 -5 -15 -2 -18 9 -9 19 4 14 18 -4 11 -6 11 -12 0z"/>
<path d="M2230 12361 c0 -6 4 -13 10 -16 6 -3 7 1 4 9 -7 18 -14 21 -14 7z"/>
<path d="M2280 12345 c0 -8 -7 -15 -15 -15 -8 0 -15 -5 -15 -11 0 -5 -4 -7
-10 -4 -11 7 -14 -18 -4 -28 8 -8 84 55 78 65 -9 14 -34 8 -34 -7z"/>
<path d="M2315 12320 c-3 -5 -1 -10 4 -10 6 0 11 5 11 10 0 6 -2 10 -4 10 -3
0 -8 -4 -11 -10z"/>
<path d="M2464 12255 c-18 -15 -18 -15 5 -13 14 2 26 9 29 16 5 17 -10 15 -34
-3z"/>
<path d="M2150 12244 c0 -8 5 -12 10 -9 6 4 8 11 5 16 -9 14 -15 11 -15 -7z"/>
<path d="M2107 12164 c8 -4 10 -18 7 -37 -4 -29 -3 -30 7 -10 13 25 6 53 -13
52 -10 0 -10 -2 -1 -5z"/>
<path d="M2055 12030 c-29 -6 -29 -6 -6 -12 17 -5 22 -12 17 -23 -8 -21 14
-15 28 8 15 23 -2 35 -39 27z"/>
<path d="M2196 11881 c-4 -7 -5 -15 -2 -18 9 -9 19 4 14 18 -4 11 -6 11 -12 0z"/>
<path d="M2125 11830 c3 -5 8 -10 11 -10 2 0 4 5 4 10 0 6 -5 10 -11 10 -5 0
-7 -4 -4 -10z"/>
<path d="M2110 11760 c0 -14 26 -23 41 -15 8 6 7 10 -2 16 -19 12 -39 11 -39
-1z"/>
<path d="M2462 11760 c5 -16 36 -22 44 -9 3 5 1 9 -5 9 -5 0 -17 3 -27 7 -11
4 -15 2 -12 -7z"/>
<path d="M2159 11738 c-6 -18 -3 -61 5 -65 5 -3 6 -1 2 5 -10 17 19 15 34 -2
15 -19 35 -11 37 14 1 14 -4 20 -18 20 -10 0 -19 7 -19 15 0 12 -37 23 -41 13z"/>
<path d="M2286 11675 c4 -17 2 -25 -7 -26 -8 0 -3 -4 9 -10 13 -5 28 -6 33 -3
6 3 16 0 24 -6 10 -8 19 -9 32 -1 14 8 15 10 3 11 -13 0 -13 1 0 10 23 15 -6
30 -40 20 -23 -7 -29 -5 -33 11 -3 10 -10 19 -16 19 -7 0 -9 -10 -5 -25z"/>
<path d="M2145 11642 c-14 -14 0 -19 43 -15 65 7 71 18 12 19 -28 1 -52 -1
-55 -4z"/>
<path d="M2165 11600 c-3 -5 1 -10 9 -10 8 0 18 5 21 10 3 6 -1 10 -9 10 -8 0
-18 -4 -21 -10z"/>
<path d="M2031 11438 c0 -7 4 -22 9 -33 8 -18 9 -17 9 7 1 15 -3 30 -9 33 -5
3 -10 0 -9 -7z"/>
<path d="M2070 11296 c0 -9 5 -16 10 -16 6 0 10 4 10 9 0 6 -4 13 -10 16 -5 3
-10 -1 -10 -9z"/>
<path d="M2032 11156 c2 -28 8 -51 16 -54 18 -6 15 58 -4 83 -14 19 -15 17
-12 -29z"/>
<path d="M2080 11186 c0 -15 30 -26 70 -26 29 0 58 16 47 26 -3 4 -13 2 -20
-5 -11 -8 -23 -8 -50 4 -44 18 -47 18 -47 1z"/>
<path d="M1983 11153 c11 -3 16 -11 13 -19 -3 -8 1 -14 9 -14 8 0 15 4 15 8 0
14 -23 32 -39 31 -12 -1 -11 -3 2 -6z"/>
<path d="M4455 11100 c3 -5 16 -10 28 -10 18 0 19 2 7 10 -20 13 -43 13 -35 0z"/>
<path d="M2057 11093 c-12 -12 -7 -22 8 -17 8 4 15 10 15 15 0 11 -14 12 -23
2z"/>
<path d="M4395 11090 c-3 -6 1 -7 9 -4 18 7 21 14 7 14 -6 0 -13 -4 -16 -10z"/>
<path d="M2270 11064 c0 -8 5 -12 10 -9 6 4 8 11 5 16 -9 14 -15 11 -15 -7z"/>
<path d="M4360 11069 c0 -5 5 -7 10 -4 6 3 10 8 10 11 0 2 -4 4 -10 4 -5 0
-10 -5 -10 -11z"/>
<path d="M4420 11050 c0 -5 11 -10 24 -10 13 0 33 -3 43 -6 16 -5 16 -4 -1 10
-22 18 -66 22 -66 6z"/>
<path d="M2055 11040 c-8 -13 20 -24 36 -15 8 6 7 10 -2 16 -18 11 -26 11 -34
-1z"/>
<path d="M2180 11046 c0 -2 7 -6 15 -10 8 -3 15 -1 15 4 0 6 -7 10 -15 10 -8
0 -15 -2 -15 -4z"/>
<path d="M4246 11024 c-9 -25 -8 -27 20 -21 14 2 41 1 61 -3 28 -7 33 -5 29 6
-4 10 2 14 19 14 14 0 25 5 25 11 0 7 -7 8 -17 4 -34 -14 -100 -18 -107 -6
-10 16 -23 14 -30 -5z"/>
<path d="M2000 11000 c0 -5 5 -10 10 -10 6 0 10 5 10 10 0 6 -4 10 -10 10 -5
0 -10 -4 -10 -10z"/>
<path d="M2460 10996 c0 -8 5 -18 10 -21 6 -3 10 3 10 14 0 12 -4 21 -10 21
-5 0 -10 -6 -10 -14z"/>
<path d="M4062 11002 c-29 -1 -50 -7 -47 -12 3 -5 19 -7 34 -4 16 4 32 1 35
-5 4 -6 12 -9 17 -6 5 4 9 -1 9 -9 0 -21 19 -20 43 2 11 9 17 12 14 6 -4 -7 0
-17 8 -24 8 -7 15 -16 15 -21 0 -14 -26 -11 -87 11 -32 11 -73 20 -93 20 -20
0 -41 5 -46 10 -12 12 -56 3 -179 -33 -38 -11 -88 -20 -109 -19 -21 0 -54 -5
-71 -13 -24 -9 -36 -10 -44 -2 -8 8 -11 8 -11 -1 0 -7 -16 -12 -43 -12 -30 0
-46 -5 -56 -19 -8 -11 -20 -17 -27 -14 -6 2 -18 -4 -25 -14 -8 -10 -21 -18
-29 -18 -8 0 -16 -8 -18 -19 -3 -13 0 -16 9 -11 8 5 10 4 5 -3 -4 -7 -14 -12
-22 -12 -11 0 -13 -6 -9 -21 5 -15 4 -19 -4 -15 -6 4 -11 14 -11 22 0 10 -7 7
-24 -10 -13 -15 -28 -26 -34 -26 -6 0 -14 -5 -18 -12 -5 -8 3 -9 30 -5 39 6
66 1 66 -14 0 -4 -6 -6 -13 -3 -21 8 -59 -43 -48 -64 21 -40 14 -105 -14 -116
-8 -3 -15 -12 -15 -20 0 -20 38 -30 55 -16 12 10 15 9 15 -9 0 -28 27 -27 36
1 5 18 8 19 15 6 5 -10 18 -14 34 -10 17 3 25 0 25 -10 0 -8 6 -23 14 -33 11
-16 17 -17 29 -7 19 16 67 5 67 -14 0 -10 -7 -13 -25 -8 -22 5 -25 3 -25 -19
0 -17 -7 -26 -21 -30 -16 -4 -20 -10 -14 -24 4 -10 7 -22 5 -28 -1 -5 -3 -32
-5 -60 -2 -27 -4 -52 -4 -54 -1 -2 -8 2 -16 9 -13 11 -14 10 -9 -6 4 -10 13
-26 19 -34 7 -8 15 -27 19 -42 3 -16 11 -28 16 -28 6 0 10 -8 10 -19 0 -10 6
-24 14 -30 12 -10 15 -7 18 15 2 15 9 29 16 32 9 3 12 -16 12 -73 l0 -77 25 6
c30 8 54 -2 35 -14 -24 -15 1 -32 37 -25 27 5 34 3 31 -7 -3 -7 2 -18 11 -25
25 -20 33 -15 17 9 -17 24 -20 38 -8 38 4 0 13 -14 21 -31 15 -34 82 -71 89
-50 2 7 11 3 22 -10 11 -11 23 -18 29 -15 6 4 22 4 36 0 19 -5 24 -11 20 -25
-4 -11 -2 -19 4 -19 6 0 11 5 11 10 0 11 39 13 64 4 9 -3 14 -9 12 -13 -3 -4
38 -7 89 -8 51 -1 103 -4 115 -8 15 -5 20 -4 16 4 -4 6 -20 11 -37 11 -16 0
-29 5 -29 10 0 6 -9 10 -19 10 -11 0 -23 5 -26 10 -4 6 5 10 19 10 14 0 26 4
26 10 0 5 6 9 13 7 8 -1 12 10 12 32 0 39 20 53 30 21 5 -17 10 -19 21 -9 21
18 17 28 -17 36 -36 10 -39 25 -7 35 15 4 6 6 -25 5 -57 0 -69 -13 -36 -38 13
-10 20 -19 14 -19 -5 0 -21 9 -35 20 -27 21 -50 26 -50 10 0 -5 -7 -7 -15 -4
-32 13 -14 32 35 38 27 4 52 11 55 16 4 6 11 7 17 4 15 -9 94 73 123 128 33
64 32 70 -11 64 -33 -6 -34 -5 -19 10 20 20 85 27 85 9 0 -7 10 -15 23 -19 31
-7 107 -74 107 -93 0 -20 -58 -73 -79 -73 -9 0 -27 -10 -41 -21 l-25 -21 25 7
c14 3 31 7 38 7 6 1 12 6 12 11 0 5 11 7 25 4 18 -3 29 1 36 14 11 22 29 25
29 5 0 -9 7 -12 20 -9 12 3 20 0 20 -6 0 -7 5 -9 10 -6 6 3 7 17 4 31 -7 27 0
30 21 12 46 -41 48 -42 40 -19 -6 21 8 30 20 11 3 -5 15 -10 26 -10 12 0 17 4
14 11 -4 6 2 13 14 16 12 3 21 9 21 13 0 13 -29 32 -39 26 -14 -9 -51 16 -51
34 -1 36 -94 116 -170 146 -43 17 -81 44 -63 44 4 0 0 5 -10 11 -9 6 -36 10
-60 10 -23 0 -67 5 -97 11 -30 6 -63 11 -73 10 -9 0 -15 3 -12 8 8 13 -31 50
-52 51 -40 2 50 29 109 33 128 9 287 -40 362 -112 38 -36 86 -122 86 -153 0
-9 7 -22 15 -29 13 -11 15 -8 15 14 0 40 -39 126 -74 164 -40 44 -121 96 -171
112 -22 7 -51 17 -65 22 -14 6 -82 13 -153 16 -101 4 -140 1 -190 -12 -96 -26
-127 -14 -127 49 0 44 14 62 35 45 14 -11 17 -10 22 8 3 12 12 22 19 22 8 0
14 5 14 10 0 6 -8 10 -19 10 -12 0 -20 9 -23 25 -5 23 14 37 25 18 2 -5 2 -3
1 4 -3 14 41 60 67 68 10 3 27 1 39 -5 15 -8 20 -8 20 2 1 21 71 69 92 62 10
-3 18 -1 18 5 0 12 41 14 89 5 18 -4 28 -11 24 -17 -3 -6 4 -3 18 6 13 9 31
17 41 17 12 0 18 8 18 23 0 20 4 22 39 19 21 -2 42 1 45 7 7 11 -40 17 -93 12
l-25 -2 24 19 c26 21 38 21 124 -2 39 -10 64 -12 75 -6 14 8 14 9 -1 10 -10 0
-18 5 -18 10 0 16 15 12 35 -10 10 -11 24 -20 31 -20 21 0 56 -43 50 -63 -3
-11 5 -24 20 -34 30 -19 43 -10 21 15 -22 24 -22 35 1 28 9 -3 24 -1 32 4 12
8 9 10 -11 10 -22 0 -67 26 -89 50 -3 3 -24 20 -47 39 -32 24 -43 29 -43 17 0
-9 -7 -16 -15 -16 -8 0 -15 -7 -15 -15 0 -11 -5 -13 -17 -6 -43 21 -93 32
-110 23 -10 -5 -22 -8 -28 -7 -5 2 -22 6 -37 9 -43 10 -33 27 15 26 69 -1 100
4 105 18 4 14 -34 17 -43 2 -10 -17 -23 -11 -19 8 4 15 -3 17 -54 17 -44 0
-58 -3 -55 -12 3 -7 -2 -13 -11 -13 -9 0 -16 8 -16 18 0 11 -3 13 -8 6 -8 -13
-52 -1 -52 15 0 8 -26 17 -70 24 -8 2 -39 1 -68 -1z m178 -87 c24 -13 24 -14
4 -15 -12 0 -27 7 -34 15 -16 19 -3 19 30 0z m100 -60 c0 -28 -15 -34 -24 -9
-10 25 -7 34 9 34 9 0 15 -9 15 -25z m-30 -35 c0 -5 7 -10 16 -10 8 0 13 -4 9
-10 -4 -6 -15 -5 -30 2 -13 6 -22 15 -19 19 7 12 24 11 24 -1z m-40 -4 c0 -2
-7 -6 -15 -10 -8 -3 -15 -1 -15 4 0 6 7 10 15 10 8 0 15 -2 15 -4z m105 -16
c3 -5 -1 -10 -9 -10 -9 0 -16 5 -16 10 0 6 4 10 9 10 6 0 13 -4 16 -10z m-448
-232 c-3 -8 -6 -5 -6 6 -1 11 2 17 5 13 3 -3 4 -12 1 -19z m-577 -68 c0 -5 -4
-10 -10 -10 -5 0 -10 5 -10 10 0 6 5 10 10 10 6 0 10 -4 10 -10z m502 -22 c-7
-7 -12 -8 -12 -2 0 14 12 26 19 19 2 -3 -1 -11 -7 -17z m-2 -48 c0 -5 -5 -10
-11 -10 -5 0 -7 5 -4 10 3 6 8 10 11 10 2 0 4 -4 4 -10z m200 -34 c0 -3 -4 -8
-10 -11 -5 -3 -10 -1 -10 4 0 6 5 11 10 11 6 0 10 -2 10 -4z m-121 -356 c0
-10 -3 -8 -9 5 -12 27 -12 43 0 25 5 -8 9 -22 9 -30z m-199 -40 c0 -5 -4 -10
-10 -10 -5 0 -10 5 -10 10 0 6 5 10 10 10 6 0 10 -4 10 -10z m80 -10 c13 -9
13 -10 0 -9 -8 0 -24 4 -35 9 l-20 9 20 0 c11 0 27 -4 35 -9z m3 -77 c-7 -2
-19 -2 -25 0 -7 3 -2 5 12 5 14 0 19 -2 13 -5z m207 -9 c0 -9 -5 -14 -12 -12
-18 6 -21 28 -4 28 9 0 16 -7 16 -16z"/>
<path d="M2627 10994 c-4 -4 -4 -10 -1 -15 6 -10 34 0 34 12 0 10 -24 12 -33
3z"/>
<path d="M3898 10993 c7 -3 16 -2 19 1 4 3 -2 6 -13 5 -11 0 -14 -3 -6 -6z"/>
<path d="M1956 10983 c-11 -11 -6 -23 9 -23 8 0 15 4 15 9 0 13 -16 22 -24 14z"/>
<path d="M2062 10979 c2 -6 8 -10 13 -10 5 0 11 4 13 10 2 6 -4 11 -13 11 -9
0 -15 -5 -13 -11z"/>
<path d="M2340 10980 c0 -5 5 -10 10 -10 6 0 10 5 10 10 0 6 -4 10 -10 10 -5
0 -10 -4 -10 -10z"/>
<path d="M2010 10960 c0 -5 5 -10 10 -10 6 0 10 5 10 10 0 6 -4 10 -10 10 -5
0 -10 -4 -10 -10z"/>
<path d="M4626 10929 c12 -13 20 -16 22 -9 3 7 -2 16 -9 21 -25 16 -32 9 -13
-12z"/>
<path d="M2313 10925 c-3 -9 -3 -18 -1 -21 3 -3 8 4 11 16 6 23 -1 27 -10 5z"/>
<path d="M2420 10930 c0 -5 7 -10 15 -10 8 0 15 5 15 10 0 6 -7 10 -15 10 -8
0 -15 -4 -15 -10z"/>
<path d="M4520 10930 c0 -5 5 -10 10 -10 6 0 10 5 10 10 0 6 -4 10 -10 10 -5
0 -10 -4 -10 -10z"/>
<path d="M2232 10899 c-10 -15 -10 -25 -3 -32 12 -12 25 12 19 38 -2 13 -6 12
-16 -6z"/>
<path d="M4483 10903 c9 -9 19 -14 23 -11 10 10 -6 28 -24 28 -15 0 -15 -1 1
-17z"/>
<path d="M4650 10891 c0 -6 4 -13 10 -16 6 -3 7 1 4 9 -7 18 -14 21 -14 7z"/>
<path d="M2188 10873 c7 -3 16 -2 19 1 4 3 -2 6 -13 5 -11 0 -14 -3 -6 -6z"/>
<path d="M3315 10850 c-3 -5 -2 -10 4 -10 5 0 13 5 16 10 3 6 2 10 -4 10 -5 0
-13 -4 -16 -10z"/>
<path d="M4680 10851 c0 -5 5 -13 10 -16 6 -3 10 -2 10 4 0 5 -4 13 -10 16 -5
3 -10 2 -10 -4z"/>
<path d="M4488 10824 c-7 -7 2 -44 11 -44 3 0 12 4 19 8 10 7 8 12 -6 25 -10
9 -21 15 -24 11z"/>
<path d="M3300 10800 c-8 -5 -12 -12 -9 -15 4 -3 12 1 19 10 14 17 11 19 -10
5z"/>
<path d="M4405 10789 c-4 -6 -5 -13 -2 -16 8 -8 67 7 67 18 0 13 -57 11 -65
-2z"/>
<path d="M2857 10772 c-19 -20 -14 -52 8 -52 14 0 25 43 15 60 -4 7 -12 4 -23
-8z"/>
<path d="M4545 10760 c-3 -5 1 -10 10 -10 9 0 13 5 10 10 -3 6 -8 10 -10 10
-2 0 -7 -4 -10 -10z"/>
<path d="M4790 10745 c0 -16 -3 -48 -7 -69 -4 -26 -3 -37 4 -33 16 10 26 94
14 114 -9 15 -10 13 -11 -12z"/>
<path d="M4740 10750 c0 -5 5 -10 10 -10 6 0 10 5 10 10 0 6 -4 10 -10 10 -5
0 -10 -4 -10 -10z"/>
<path d="M2980 10721 c0 -6 5 -13 10 -16 6 -3 10 1 10 9 0 9 -4 16 -10 16 -5
0 -10 -4 -10 -9z"/>
<path d="M4660 10683 c0 -14 8 -19 31 -21 17 -1 39 -7 49 -12 24 -13 33 -13
28 1 -2 6 -19 17 -38 24 -19 7 -43 16 -52 20 -14 5 -18 2 -18 -12z"/>
<path d="M4820 10691 c0 -5 11 -16 25 -25 29 -19 36 -1 8 20 -21 16 -33 18
-33 5z"/>
<path d="M3205 10680 c-3 -5 1 -10 9 -10 9 0 16 5 16 10 0 6 -4 10 -9 10 -6 0
-13 -4 -16 -10z"/>
<path d="M4050 10680 c-13 -8 -12 -10 3 -10 9 0 17 5 17 10 0 12 -1 12 -20 0z"/>
<path d="M3025 10639 c-10 -15 3 -25 16 -12 7 7 7 13 1 17 -6 3 -14 1 -17 -5z"/>
<path d="M3167 10621 c-5 -22 1 -33 14 -25 12 7 12 44 0 44 -5 0 -11 -9 -14
-19z"/>
<path d="M4839 10630 c-1 -3 -3 -41 -4 -85 -2 -84 6 -115 30 -115 18 0 18 -3
-1 54 -10 28 -14 63 -11 86 2 20 1 44 -4 51 -5 8 -9 12 -10 9z"/>
<path d="M3040 10560 c0 -11 7 -20 15 -20 13 0 14 4 5 20 -6 11 -13 20 -15 20
-3 0 -5 -9 -5 -20z"/>
<path d="M3101 10516 c-10 -12 -8 -17 7 -25 16 -8 21 -7 26 5 12 31 -12 45
-33 20z"/>
<path d="M3146 10475 c7 -17 20 -20 28 -6 3 5 -1 12 -10 15 -22 9 -24 8 -18
-9z"/>
<path d="M3918 10483 c7 -3 16 -2 19 1 4 3 -2 6 -13 5 -11 0 -14 -3 -6 -6z"/>
<path d="M4800 10420 c0 -5 5 -10 11 -10 5 0 7 5 4 10 -3 6 -8 10 -11 10 -2 0
-4 -4 -4 -10z"/>
<path d="M4408 10293 c7 -3 16 -2 19 1 4 3 -2 6 -13 5 -11 0 -14 -3 -6 -6z"/>
<path d="M4440 10280 c0 -5 7 -10 16 -10 8 0 12 5 9 10 -3 6 -10 10 -16 10 -5
0 -9 -4 -9 -10z"/>
<path d="M4290 9940 c0 -5 7 -7 15 -4 8 4 15 8 15 10 0 2 -7 4 -15 4 -8 0 -15
-4 -15 -10z"/>
<path d="M4290 9898 c0 -8 7 -23 15 -34 15 -18 15 -18 13 10 -3 29 -28 50 -28
24z"/>
<path d="M4365 9900 c3 -5 10 -10 16 -10 5 0 9 5 9 10 0 6 -7 10 -16 10 -8 0
-12 -4 -9 -10z"/>
<path d="M4925 9450 c-3 -5 -1 -10 4 -10 6 0 11 5 11 10 0 6 -2 10 -4 10 -3 0
-8 -4 -11 -10z"/>
<path d="M2944 9409 c-3 -6 -1 -16 5 -22 8 -8 11 -5 11 11 0 24 -5 28 -16 11z"/>
<path d="M3490 8979 c-54 -31 -129 -117 -136 -158 -4 -20 -11 -44 -16 -53 -6
-13 -5 -18 5 -18 8 0 19 12 26 27 7 16 15 23 19 16 4 -6 24 -11 45 -11 21 0
44 -5 52 -12 8 -6 19 -9 25 -5 5 3 10 1 10 -5 0 -8 -9 -10 -24 -6 -16 4 -28 1
-33 -8 -4 -7 -17 -16 -28 -19 -18 -4 -18 -5 3 -6 13 -1 22 -7 22 -16 0 -9 15
-22 33 -30 30 -13 33 -13 50 7 12 15 21 18 28 11 17 -17 82 -3 109 23 l25 24
-23 0 c-19 0 -21 3 -12 20 6 10 9 23 8 27 -1 4 1 27 5 51 8 46 -7 122 -23 122
-6 0 -12 0 -15 0 -3 0 -14 9 -25 20 -26 26 -83 25 -130 -1z m24 -255 c9 -3 16
-12 16 -20 0 -11 -5 -11 -25 -2 -32 15 -24 35 9 22z m93 -16 c-3 -8 -6 -5 -6
6 -1 11 2 17 5 13 3 -3 4 -12 1 -19z"/>
<path d="M3250 8540 c0 -5 5 -10 10 -10 6 0 10 5 10 10 0 6 -4 10 -10 10 -5 0
-10 -4 -10 -10z"/>
<path d="M3286 8501 c5 -23 2 -29 -15 -34 -12 -3 -21 -11 -21 -17 0 -7 6 -10
14 -7 23 9 27 -40 12 -155 -2 -15 0 -25 5 -23 4 3 10 1 14 -5 8 -13 25 -13 25
1 0 6 9 22 20 36 21 27 26 81 11 111 -5 9 -13 28 -19 42 -5 14 -14 37 -21 53
-14 36 -32 35 -25 -2z"/>
<path d="M5192 8500 c0 -14 2 -19 5 -12 2 6 2 18 0 25 -3 6 -5 1 -5 -13z"/>
<path d="M3345 8271 c-3 -6 3 -15 14 -20 24 -14 31 -14 31 -1 0 14 -38 32 -45
21z"/>
<path d="M3564 8209 c14 -17 26 -37 26 -45 0 -9 4 -12 10 -9 6 4 7 -1 3 -11
-4 -12 -2 -15 8 -12 8 3 13 14 11 24 -2 10 -4 28 -5 39 -1 12 -11 21 -24 23
-13 2 -23 8 -23 13 0 5 -7 9 -16 9 -12 0 -10 -7 10 -31z"/>
<path d="M3634 8179 c-9 -15 1 -21 26 -17 21 3 21 3 1 15 -14 9 -22 9 -27 2z"/>
<path d="M3740 7854 c0 -10 28 -33 33 -27 3 3 0 12 -8 19 -14 15 -25 18 -25 8z"/>
<path d="M3600 7821 c0 -11 5 -23 10 -26 6 -3 10 -20 10 -36 0 -17 6 -32 15
-35 8 -4 15 -13 15 -20 0 -8 8 -23 18 -33 20 -21 52 -34 52 -22 0 5 -8 11 -19
14 -10 2 -21 17 -25 32 -4 15 -14 34 -21 42 -8 8 -15 23 -15 33 0 10 -4 22
-10 25 -5 3 -10 15 -10 26 0 10 -4 19 -10 19 -5 0 -10 -9 -10 -19z"/>
<path d="M4389 7750 c0 -3 -2 -15 -5 -27 -2 -12 0 -24 5 -27 12 -8 20 29 10
45 -5 8 -9 12 -10 9z"/>
<path d="M3703 7700 c9 -25 27 -42 27 -26 0 15 -21 56 -29 56 -5 0 -4 -13 2
-30z"/>
<path d="M3650 7591 c0 -6 5 -13 10 -16 6 -3 10 1 10 9 0 9 -4 16 -10 16 -5 0
-10 -4 -10 -9z"/>
<path d="M3155 7210 c-3 -5 -1 -10 4 -10 6 0 11 5 11 10 0 6 -2 10 -4 10 -3 0
-8 -4 -11 -10z"/>
<path d="M3427 6773 c-11 -10 -8 -45 3 -38 6 3 10 1 10 -6 0 -10 3 -10 11 -2
6 6 8 20 4 32 -6 21 -16 26 -28 14z"/>
<path d="M3230 6740 c0 -5 5 -10 10 -10 6 0 10 5 10 10 0 6 -4 10 -10 10 -5 0
-10 -4 -10 -10z"/>
<path d="M3647 6644 c7 -3 9 -12 6 -20 -3 -8 1 -14 11 -14 9 0 16 4 16 8 0 12
-22 32 -34 31 -6 0 -6 -3 1 -5z"/>
</g>
</svg>
